<svg width="500" height="500" viewBox="0 0 500 500" fill="none" xmlns="http://www.w3.org/2000/svg">
<rect x="-3.5" y="-3.5" width="493" height="493" transform="matrix(-4.37114e-08 -1 -1 4.37114e-08 493 493)" fill="#1447E6"/>
<rect x="-3.5" y="-3.5" width="493" height="493" transform="matrix(-4.37114e-08 -1 -1 4.37114e-08 493 493)" stroke="white" stroke-width="7"/>
<rect x="-3.5" y="-3.5" width="391" height="380" transform="matrix(-4.37114e-08 -1 -1 4.37114e-08 437 442)" stroke="white" stroke-width="7"/>
<rect width="53" height="125" transform="translate(417 95)" fill="white"/>
<rect width="185" height="115" transform="matrix(-4.37114e-08 -1 -1 4.37114e-08 272 280)" fill="white"/>
<rect width="185" height="115" transform="matrix(-1 8.74228e-08 8.74228e-08 1 342 290)" fill="white"/>
<rect width="53" height="125" transform="translate(35 280)" fill="white"/>
</svg>
